<svg width="24" height="24" viewBox="0 0 24 24" fill="none" xmlns="http://www.w3.org/2000/svg">
<path d="M23.094 9.83073C23.6176 9.92073 24 10.3745 24 10.9058V13.0942C24 13.6255 23.6176 14.0793 23.094 14.1693L21.2045 14.4944C20.9891 15.2913 20.676 16.0467 20.2735 16.7465L21.3785 18.3109C21.6851 18.7445 21.6344 19.3364 21.2591 19.7116L19.7116 21.2591C19.3358 21.6349 18.7445 21.6851 18.3109 21.3785L16.7465 20.274C16.0467 20.6765 15.2913 20.9891 14.4944 21.2051L14.1693 23.0945C14.0793 23.6176 13.6255 24 13.0942 24H10.9058C10.3745 24 9.92073 23.6176 9.83073 23.094L9.50564 21.2045C8.70873 20.9891 7.95327 20.676 7.25345 20.2735L5.68909 21.378C5.25545 21.6845 4.66364 21.6338 4.28836 21.2585L2.74091 19.7111C2.36564 19.3353 2.31491 18.744 2.62145 18.3104L3.72655 16.746C3.324 16.0462 3.01091 15.2907 2.79545 14.4938L0.906 14.1687C0.382364 14.0793 0 13.6255 0 13.0942V10.9058C0 10.3745 0.382364 9.92073 0.906 9.83073L2.79545 9.50564C3.01091 8.70873 3.324 7.95327 3.72655 7.25345L2.62145 5.68909C2.31491 5.25545 2.36564 4.66364 2.74091 4.28836L4.28836 2.74091C4.66418 2.36564 5.25545 2.31491 5.68909 2.62145L7.25345 3.72655C7.95327 3.324 8.70873 3.01145 9.50564 2.79545L9.83073 0.906C9.92073 0.382364 10.3745 0 10.9058 0H13.0942C13.6255 0 14.0793 0.382364 14.1693 0.906L14.4944 2.79545C15.2913 3.01091 16.0467 3.324 16.7465 3.72655L18.3109 2.62145C18.7445 2.31491 19.3364 2.36564 19.7116 2.74091L21.2591 4.28836C21.6344 4.66364 21.6851 5.25545 21.3785 5.68909L20.2735 7.25345C20.676 7.95327 20.9891 8.70873 21.2045 9.50564L23.094 9.83073ZM12 16.3636C14.4098 16.3636 16.3636 14.4098 16.3636 12C16.3636 9.59018 14.4098 7.63636 12 7.63636C9.59018 7.63636 7.63636 9.59018 7.63636 12C7.63636 14.4098 9.59018 16.3636 12 16.3636Z" fill="white"/>
</svg>
